<mxfile host="drawio-plugin" modified="2024-12-19T08:34:50.515Z" agent="Mozilla/5.0 (Macintosh; Intel Mac OS X 10_15_7) AppleWebKit/537.36 (KHTML, like Gecko) Chrome/122.0.0.0 Safari/537.36" etag="A5bv012_y3t89eycaAtG" version="22.1.22" type="embed" pages="2">
  <diagram id="ByWnodgbexxBwmBKIoyD" name="AvstWidthCovTest">
    <mxGraphModel dx="1222" dy="829" grid="0" gridSize="10" guides="1" tooltips="1" connect="1" arrows="1" fold="1" page="0" pageScale="1" pageWidth="850" pageHeight="1100" math="1" shadow="0">
      <root>
        <mxCell id="0" />
        <mxCell id="1" parent="0" />
        <mxCell id="24" value="ways" style="rounded=1;whiteSpace=wrap;html=1;verticalAlign=top;fontFamily=Verdana;fontSize=16;" parent="1" vertex="1">
          <mxGeometry x="240" y="210" width="280" height="150" as="geometry" />
        </mxCell>
        <mxCell id="16" value="ways0" style="rounded=1;whiteSpace=wrap;html=1;align=left;fontFamily=Verdana;fontSize=14;" parent="1" vertex="1">
          <mxGeometry x="260" y="240" width="240" height="100" as="geometry" />
        </mxCell>
        <mxCell id="11" value="DataCache" style="whiteSpace=wrap;html=1;rounded=1;fontFamily=Verdana;" parent="1" vertex="1">
          <mxGeometry x="290" y="50" width="180" height="120" as="geometry" />
        </mxCell>
        <mxCell id="12" value="mem wr" style="shape=flexArrow;endArrow=classic;startArrow=classic;html=1;rounded=0;labelBackgroundColor=none;exitX=1;exitY=0.5;exitDx=0;exitDy=0;fontFamily=Verdana;" parent="1" source="11" edge="1">
          <mxGeometry width="100" height="100" relative="1" as="geometry">
            <mxPoint x="470" y="120" as="sourcePoint" />
            <mxPoint x="580" y="110" as="targetPoint" />
          </mxGeometry>
        </mxCell>
        <mxCell id="13" value="cpu wr" style="shape=flexArrow;endArrow=classic;startArrow=classic;html=1;rounded=0;entryX=0;entryY=0.5;entryDx=0;entryDy=0;labelBackgroundColor=none;fontFamily=Verdana;" parent="1" target="11" edge="1">
          <mxGeometry width="100" height="100" relative="1" as="geometry">
            <mxPoint x="180" y="110" as="sourcePoint" />
            <mxPoint x="330" y="120" as="targetPoint" />
          </mxGeometry>
        </mxCell>
        <mxCell id="14" value="tags" style="whiteSpace=wrap;html=1;rounded=1;fontFamily=Verdana;fontSize=12;fillColor=#fff2cc;strokeColor=#d6b656;" parent="1" vertex="1">
          <mxGeometry x="310" y="265" width="80" height="40" as="geometry" />
        </mxCell>
        <mxCell id="15" value="data" style="whiteSpace=wrap;html=1;rounded=1;fontFamily=Verdana;fontSize=12;fillColor=#fff2cc;strokeColor=#d6b656;" parent="1" vertex="1">
          <mxGeometry x="410" y="265" width="80" height="40" as="geometry" />
        </mxCell>
        <mxCell id="27" value="victim" style="rounded=1;whiteSpace=wrap;html=1;verticalAlign=top;fontFamily=Verdana;fontSize=16;" parent="1" vertex="1">
          <mxGeometry x="590" y="205" width="280" height="160" as="geometry" />
        </mxCell>
        <mxCell id="83" value="mem wr" style="edgeStyle=orthogonalEdgeStyle;rounded=0;html=1;fontFamily=Verdana;fontSize=12;" parent="1" source="28" edge="1">
          <mxGeometry relative="1" as="geometry">
            <mxPoint x="1140" y="285" as="targetPoint" />
          </mxGeometry>
        </mxCell>
        <mxCell id="28" value="buffer" style="whiteSpace=wrap;html=1;rounded=1;fontFamily=Verdana;fontSize=12;fillColor=#fff2cc;strokeColor=#d6b656;" parent="1" vertex="1">
          <mxGeometry x="690" y="265" width="80" height="40" as="geometry" />
        </mxCell>
        <mxCell id="30" value="manager" style="rounded=1;whiteSpace=wrap;html=1;verticalAlign=top;fontFamily=Verdana;fontSize=16;" parent="1" vertex="1">
          <mxGeometry x="590" y="10" width="280" height="160" as="geometry" />
        </mxCell>
        <mxCell id="37" value="cache line" style="whiteSpace=wrap;html=1;" parent="1" vertex="1">
          <mxGeometry x="280" y="720" width="120" height="20" as="geometry" />
        </mxCell>
        <mxCell id="38" value="" style="whiteSpace=wrap;html=1;" parent="1" vertex="1">
          <mxGeometry x="280" y="740" width="120" height="20" as="geometry" />
        </mxCell>
        <mxCell id="39" value="" style="whiteSpace=wrap;html=1;" parent="1" vertex="1">
          <mxGeometry x="280" y="760" width="120" height="20" as="geometry" />
        </mxCell>
        <mxCell id="41" value="" style="whiteSpace=wrap;html=1;" parent="1" vertex="1">
          <mxGeometry x="280" y="780" width="120" height="20" as="geometry" />
        </mxCell>
        <mxCell id="48" value="" style="whiteSpace=wrap;html=1;dashed=1;" parent="1" vertex="1">
          <mxGeometry x="480" y="720" width="120" height="20" as="geometry" />
        </mxCell>
        <mxCell id="74" style="edgeStyle=orthogonalEdgeStyle;rounded=0;orthogonalLoop=1;jettySize=auto;html=1;entryX=1;entryY=0.5;entryDx=0;entryDy=0;endArrow=none;endFill=0;" parent="1" source="49" target="38" edge="1">
          <mxGeometry relative="1" as="geometry" />
        </mxCell>
        <mxCell id="49" value="" style="whiteSpace=wrap;html=1;fillColor=#fff2cc;strokeColor=#d6b656;" parent="1" vertex="1">
          <mxGeometry x="480" y="740" width="120" height="20" as="geometry" />
        </mxCell>
        <mxCell id="50" value="" style="whiteSpace=wrap;html=1;dashed=1;" parent="1" vertex="1">
          <mxGeometry x="480" y="760" width="120" height="20" as="geometry" />
        </mxCell>
        <mxCell id="51" value="" style="whiteSpace=wrap;html=1;dashed=1;" parent="1" vertex="1">
          <mxGeometry x="480" y="780" width="120" height="20" as="geometry" />
        </mxCell>
        <mxCell id="53" value="" style="whiteSpace=wrap;html=1;dashed=1;" parent="1" vertex="1">
          <mxGeometry x="480" y="640" width="120" height="20" as="geometry" />
        </mxCell>
        <mxCell id="54" value="" style="whiteSpace=wrap;html=1;dashed=1;" parent="1" vertex="1">
          <mxGeometry x="480" y="660" width="120" height="20" as="geometry" />
        </mxCell>
        <mxCell id="55" value="" style="whiteSpace=wrap;html=1;dashed=1;" parent="1" vertex="1">
          <mxGeometry x="480" y="680" width="120" height="20" as="geometry" />
        </mxCell>
        <mxCell id="73" style="rounded=0;orthogonalLoop=1;jettySize=auto;html=1;entryX=1;entryY=0.5;entryDx=0;entryDy=0;exitX=0;exitY=0.5;exitDx=0;exitDy=0;endArrow=none;endFill=0;" parent="1" source="56" target="41" edge="1">
          <mxGeometry relative="1" as="geometry" />
        </mxCell>
        <mxCell id="56" value="" style="whiteSpace=wrap;html=1;fillColor=#fff2cc;strokeColor=#d6b656;" parent="1" vertex="1">
          <mxGeometry x="480" y="700" width="120" height="20" as="geometry" />
        </mxCell>
        <mxCell id="75" style="rounded=0;orthogonalLoop=1;jettySize=auto;html=1;entryX=1;entryY=0.5;entryDx=0;entryDy=0;exitX=0;exitY=0.5;exitDx=0;exitDy=0;endArrow=none;endFill=0;" parent="1" source="57" target="37" edge="1">
          <mxGeometry relative="1" as="geometry" />
        </mxCell>
        <mxCell id="57" value="" style="whiteSpace=wrap;html=1;fillColor=#fff2cc;strokeColor=#d6b656;" parent="1" vertex="1">
          <mxGeometry x="480" y="800" width="120" height="20" as="geometry" />
        </mxCell>
        <mxCell id="58" value="" style="whiteSpace=wrap;html=1;dashed=1;" parent="1" vertex="1">
          <mxGeometry x="480" y="820" width="120" height="20" as="geometry" />
        </mxCell>
        <mxCell id="59" value="" style="whiteSpace=wrap;html=1;dashed=1;" parent="1" vertex="1">
          <mxGeometry x="480" y="840" width="120" height="20" as="geometry" />
        </mxCell>
        <mxCell id="60" value="" style="whiteSpace=wrap;html=1;dashed=1;" parent="1" vertex="1">
          <mxGeometry x="480" y="860" width="120" height="20" as="geometry" />
        </mxCell>
        <mxCell id="61" value="" style="whiteSpace=wrap;html=1;dashed=1;" parent="1" vertex="1">
          <mxGeometry x="480" y="880" width="120" height="20" as="geometry" />
        </mxCell>
        <mxCell id="62" value="" style="whiteSpace=wrap;html=1;dashed=1;" parent="1" vertex="1">
          <mxGeometry x="480" y="900" width="120" height="20" as="geometry" />
        </mxCell>
        <mxCell id="76" style="rounded=0;orthogonalLoop=1;jettySize=auto;html=1;entryX=1;entryY=0.5;entryDx=0;entryDy=0;startArrow=none;startFill=0;endArrow=none;endFill=0;exitX=0;exitY=0.5;exitDx=0;exitDy=0;" parent="1" source="63" target="39" edge="1">
          <mxGeometry relative="1" as="geometry" />
        </mxCell>
        <mxCell id="63" value="" style="whiteSpace=wrap;html=1;dashed=1;fillColor=#fff2cc;strokeColor=#d6b656;" parent="1" vertex="1">
          <mxGeometry x="480" y="920" width="120" height="20" as="geometry" />
        </mxCell>
        <mxCell id="64" value="" style="whiteSpace=wrap;html=1;dashed=1;" parent="1" vertex="1">
          <mxGeometry x="480" y="940" width="120" height="20" as="geometry" />
        </mxCell>
        <mxCell id="52" value="" style="whiteSpace=wrap;html=1;fillColor=none;strokeWidth=2;" parent="1" vertex="1">
          <mxGeometry x="480" y="640" width="120" height="80" as="geometry" />
        </mxCell>
        <mxCell id="67" value="" style="whiteSpace=wrap;html=1;fillColor=none;strokeWidth=2;" parent="1" vertex="1">
          <mxGeometry x="480" y="720" width="120" height="80" as="geometry" />
        </mxCell>
        <mxCell id="68" value="" style="whiteSpace=wrap;html=1;fillColor=none;strokeWidth=2;" parent="1" vertex="1">
          <mxGeometry x="480" y="800" width="120" height="80" as="geometry" />
        </mxCell>
        <mxCell id="70" value="" style="whiteSpace=wrap;html=1;fillColor=none;strokeWidth=2;" parent="1" vertex="1">
          <mxGeometry x="480" y="880" width="120" height="80" as="geometry" />
        </mxCell>
        <mxCell id="77" style="edgeStyle=none;html=1;entryX=0;entryY=0.5;entryDx=0;entryDy=0;" parent="1" source="15" target="28" edge="1">
          <mxGeometry relative="1" as="geometry" />
        </mxCell>
        <mxCell id="84" value="loader" style="rounded=1;whiteSpace=wrap;html=1;verticalAlign=top;fontFamily=Verdana;fontSize=16;" parent="1" vertex="1">
          <mxGeometry x="580" y="390" width="280" height="160" as="geometry" />
        </mxCell>
        <mxCell id="85" value="" style="whiteSpace=wrap;html=1;" vertex="1" parent="1">
          <mxGeometry x="1000" y="600" width="200" height="310" as="geometry" />
        </mxCell>
        <mxCell id="86" value="cpu req" style="shape=flexArrow;endArrow=classic;html=1;rounded=0;entryX=0;entryY=0.25;entryDx=0;entryDy=0;labelBackgroundColor=none;fontFamily=Verdana;" edge="1" parent="1" target="85">
          <mxGeometry width="50" height="50" relative="1" as="geometry">
            <mxPoint x="880" y="680" as="sourcePoint" />
            <mxPoint x="930" y="660" as="targetPoint" />
          </mxGeometry>
        </mxCell>
        <mxCell id="87" value="cpu rsp" style="shape=flexArrow;endArrow=classic;html=1;rounded=0;exitX=0;exitY=0.75;exitDx=0;exitDy=0;dashed=1;labelBackgroundColor=none;fontFamily=Verdana;" edge="1" parent="1" source="85">
          <mxGeometry width="50" height="50" relative="1" as="geometry">
            <mxPoint x="1070" y="780" as="sourcePoint" />
            <mxPoint x="880" y="833" as="targetPoint" />
          </mxGeometry>
        </mxCell>
        <mxCell id="88" value="mem req" style="shape=flexArrow;endArrow=classic;html=1;rounded=0;entryX=0;entryY=0.25;entryDx=0;entryDy=0;exitX=0.998;exitY=0.261;exitDx=0;exitDy=0;exitPerimeter=0;dashed=1;fontFamily=Verdana;labelBackgroundColor=none;" edge="1" parent="1" source="85">
          <mxGeometry width="50" height="50" relative="1" as="geometry">
            <mxPoint x="1200" y="682" as="sourcePoint" />
            <mxPoint x="1320" y="680" as="targetPoint" />
          </mxGeometry>
        </mxCell>
        <mxCell id="89" value="mem rsp" style="shape=flexArrow;endArrow=classic;html=1;rounded=0;exitX=0;exitY=0.75;exitDx=0;exitDy=0;dashed=1;labelBackgroundColor=none;fontFamily=Verdana;entryX=0.992;entryY=0.773;entryDx=0;entryDy=0;entryPerimeter=0;" edge="1" parent="1" target="85">
          <mxGeometry width="50" height="50" relative="1" as="geometry">
            <mxPoint x="1320" y="839.43" as="sourcePoint" />
            <mxPoint x="1200" y="839.43" as="targetPoint" />
          </mxGeometry>
        </mxCell>
        <mxCell id="96" style="edgeStyle=orthogonalEdgeStyle;rounded=0;orthogonalLoop=1;jettySize=auto;html=1;entryX=0;entryY=0.5;entryDx=0;entryDy=0;" edge="1" parent="1" source="92" target="95">
          <mxGeometry relative="1" as="geometry" />
        </mxCell>
        <mxCell id="92" value="sequencer" style="whiteSpace=wrap;html=1;" vertex="1" parent="1">
          <mxGeometry x="920" y="960" width="80" height="40" as="geometry" />
        </mxCell>
        <mxCell id="94" style="edgeStyle=orthogonalEdgeStyle;rounded=0;orthogonalLoop=1;jettySize=auto;html=1;entryX=0;entryY=0.5;entryDx=0;entryDy=0;" edge="1" parent="1" source="93" target="92">
          <mxGeometry relative="1" as="geometry" />
        </mxCell>
        <mxCell id="93" value="sequence" style="whiteSpace=wrap;html=1;" vertex="1" parent="1">
          <mxGeometry x="800" y="960" width="80" height="40" as="geometry" />
        </mxCell>
        <mxCell id="108" style="edgeStyle=orthogonalEdgeStyle;rounded=0;orthogonalLoop=1;jettySize=auto;html=1;entryX=0;entryY=0.5;entryDx=0;entryDy=0;" edge="1" parent="1" source="95" target="107">
          <mxGeometry relative="1" as="geometry" />
        </mxCell>
        <mxCell id="95" value="driver" style="whiteSpace=wrap;html=1;verticalAlign=top;" vertex="1" parent="1">
          <mxGeometry x="1060" y="950" width="200" height="60" as="geometry" />
        </mxCell>
        <mxCell id="97" value="DataCacheBfm" style="whiteSpace=wrap;html=1;verticalAlign=top;align=left;" vertex="1" parent="1">
          <mxGeometry x="850" y="1040" width="880" height="210" as="geometry" />
        </mxCell>
        <mxCell id="102" style="edgeStyle=orthogonalEdgeStyle;rounded=0;orthogonalLoop=1;jettySize=auto;html=1;entryX=0;entryY=0.5;entryDx=0;entryDy=0;" edge="1" parent="1" source="98" target="101">
          <mxGeometry relative="1" as="geometry" />
        </mxCell>
        <mxCell id="98" value="send_cpu_cmd" style="whiteSpace=wrap;html=1;fillColor=#f8cecc;strokeColor=#b85450;" vertex="1" parent="1">
          <mxGeometry x="1168" y="1080" width="84" height="40" as="geometry" />
        </mxCell>
        <mxCell id="99" style="edgeStyle=orthogonalEdgeStyle;rounded=0;orthogonalLoop=1;jettySize=auto;html=1;entryX=0.5;entryY=0;entryDx=0;entryDy=0;exitX=0.75;exitY=1;exitDx=0;exitDy=0;" edge="1" parent="1" source="95" target="98">
          <mxGeometry relative="1" as="geometry" />
        </mxCell>
        <mxCell id="112" style="edgeStyle=orthogonalEdgeStyle;rounded=0;orthogonalLoop=1;jettySize=auto;html=1;entryX=0.5;entryY=0;entryDx=0;entryDy=0;" edge="1" parent="1" source="101" target="104">
          <mxGeometry relative="1" as="geometry">
            <Array as="points">
              <mxPoint x="1420" y="1100" />
              <mxPoint x="1420" y="1130" />
              <mxPoint x="1350" y="1130" />
            </Array>
          </mxGeometry>
        </mxCell>
        <mxCell id="101" value="cpu_cmd_drv_que" style="shape=process;whiteSpace=wrap;html=1;backgroundOutline=1;fillColor=#d5e8d4;strokeColor=#82b366;" vertex="1" parent="1">
          <mxGeometry x="1280" y="1085" width="130" height="30" as="geometry" />
        </mxCell>
        <mxCell id="103" value="dut" style="whiteSpace=wrap;html=1;" vertex="1" parent="1">
          <mxGeometry x="930" y="1290" width="480" height="60" as="geometry" />
        </mxCell>
        <mxCell id="106" style="edgeStyle=orthogonalEdgeStyle;rounded=0;orthogonalLoop=1;jettySize=auto;html=1;entryX=0.876;entryY=0.024;entryDx=0;entryDy=0;entryPerimeter=0;" edge="1" parent="1" source="104" target="103">
          <mxGeometry relative="1" as="geometry" />
        </mxCell>
        <mxCell id="120" style="edgeStyle=orthogonalEdgeStyle;rounded=0;orthogonalLoop=1;jettySize=auto;html=1;entryX=0;entryY=0.5;entryDx=0;entryDy=0;" edge="1" parent="1" source="104" target="119">
          <mxGeometry relative="1" as="geometry" />
        </mxCell>
        <mxCell id="122" style="edgeStyle=orthogonalEdgeStyle;rounded=0;orthogonalLoop=1;jettySize=auto;html=1;entryX=1;entryY=0.5;entryDx=0;entryDy=0;startArrow=classic;startFill=1;" edge="1" parent="1" source="104" target="121">
          <mxGeometry relative="1" as="geometry" />
        </mxCell>
        <mxCell id="104" value="driver_bfm" style="whiteSpace=wrap;html=1;fillColor=#f8cecc;strokeColor=#b85450;" vertex="1" parent="1">
          <mxGeometry x="1310" y="1150" width="80" height="40" as="geometry" />
        </mxCell>
        <mxCell id="107" value="scoreboard" style="whiteSpace=wrap;html=1;" vertex="1" parent="1">
          <mxGeometry x="1290" y="950" width="120" height="60" as="geometry" />
        </mxCell>
        <mxCell id="129" style="edgeStyle=orthogonalEdgeStyle;rounded=0;orthogonalLoop=1;jettySize=auto;html=1;entryX=0;entryY=0.5;entryDx=0;entryDy=0;verticalAlign=top;" edge="1" parent="1" source="109" target="107">
          <mxGeometry relative="1" as="geometry">
            <Array as="points">
              <mxPoint x="1110" y="980" />
            </Array>
          </mxGeometry>
        </mxCell>
        <mxCell id="109" value="get_cpu_rsp" style="whiteSpace=wrap;html=1;fillColor=#f8cecc;strokeColor=#b85450;" vertex="1" parent="1">
          <mxGeometry x="1070" y="1080" width="80" height="40" as="geometry" />
        </mxCell>
        <mxCell id="114" style="edgeStyle=orthogonalEdgeStyle;rounded=0;orthogonalLoop=1;jettySize=auto;html=1;entryX=0;entryY=0.5;entryDx=0;entryDy=0;" edge="1" parent="1" source="113" target="109">
          <mxGeometry relative="1" as="geometry" />
        </mxCell>
        <mxCell id="113" value="cpu_cmd_drv_que" style="shape=process;whiteSpace=wrap;html=1;backgroundOutline=1;fillColor=#d5e8d4;strokeColor=#82b366;" vertex="1" parent="1">
          <mxGeometry x="910" y="1085" width="130" height="30" as="geometry" />
        </mxCell>
        <mxCell id="116" style="edgeStyle=orthogonalEdgeStyle;rounded=0;orthogonalLoop=1;jettySize=auto;html=1;entryX=0;entryY=0.5;entryDx=0;entryDy=0;exitX=0;exitY=0.5;exitDx=0;exitDy=0;" edge="1" parent="1" source="115" target="113">
          <mxGeometry relative="1" as="geometry" />
        </mxCell>
        <mxCell id="115" value="cpu_rsp_bfm" style="whiteSpace=wrap;html=1;fillColor=#f8cecc;strokeColor=#b85450;" vertex="1" parent="1">
          <mxGeometry x="935" y="1150" width="80" height="40" as="geometry" />
        </mxCell>
        <mxCell id="118" style="edgeStyle=orthogonalEdgeStyle;rounded=0;orthogonalLoop=1;jettySize=auto;html=1;entryX=0.094;entryY=0.027;entryDx=0;entryDy=0;entryPerimeter=0;" edge="1" parent="1" source="115" target="103">
          <mxGeometry relative="1" as="geometry" />
        </mxCell>
        <mxCell id="125" style="edgeStyle=orthogonalEdgeStyle;rounded=0;orthogonalLoop=1;jettySize=auto;html=1;entryX=1;entryY=0.5;entryDx=0;entryDy=0;exitX=1;exitY=0.5;exitDx=0;exitDy=0;" edge="1" parent="1" source="119" target="123">
          <mxGeometry relative="1" as="geometry" />
        </mxCell>
        <mxCell id="119" value="cpu_rsp_exp_queue" style="shape=process;whiteSpace=wrap;html=1;backgroundOutline=1;fillColor=#d5e8d4;strokeColor=#82b366;" vertex="1" parent="1">
          <mxGeometry x="1450" y="1150" width="170" height="40" as="geometry" />
        </mxCell>
        <mxCell id="121" value="cache_map" style="whiteSpace=wrap;html=1;fillColor=#dae8fc;strokeColor=#6c8ebf;" vertex="1" parent="1">
          <mxGeometry x="1110" y="1140" width="120" height="60" as="geometry" />
        </mxCell>
        <mxCell id="128" style="edgeStyle=orthogonalEdgeStyle;rounded=0;orthogonalLoop=1;jettySize=auto;html=1;entryX=0.5;entryY=1;entryDx=0;entryDy=0;" edge="1" parent="1" source="123" target="126">
          <mxGeometry relative="1" as="geometry" />
        </mxCell>
        <mxCell id="123" value="get_cpu_rsp_exp" style="whiteSpace=wrap;html=1;fillColor=#f8cecc;strokeColor=#b85450;" vertex="1" parent="1">
          <mxGeometry x="1480" y="1080" width="110" height="40" as="geometry" />
        </mxCell>
        <mxCell id="127" style="edgeStyle=orthogonalEdgeStyle;rounded=0;orthogonalLoop=1;jettySize=auto;html=1;entryX=1;entryY=0.5;entryDx=0;entryDy=0;" edge="1" parent="1" source="126" target="107">
          <mxGeometry relative="1" as="geometry" />
        </mxCell>
        <mxCell id="126" value="monitor" style="whiteSpace=wrap;html=1;" vertex="1" parent="1">
          <mxGeometry x="1475" y="950" width="120" height="60" as="geometry" />
        </mxCell>
      </root>
    </mxGraphModel>
  </diagram>
  <diagram id="n_BqRoRJM9pi_r8xWl5j" name="DataCache">
    <mxGraphModel dx="1521" dy="996" grid="1" gridSize="10" guides="1" tooltips="1" connect="1" arrows="1" fold="1" page="1" pageScale="1" pageWidth="850" pageHeight="1100" math="0" shadow="0">
      <root>
        <mxCell id="0" />
        <mxCell id="1" parent="0" />
        <mxCell id="TxRPVYnzFZI4B-xf0rwA-1" value="" style="whiteSpace=wrap;html=1;" vertex="1" parent="1">
          <mxGeometry x="130" y="190" width="120" height="60" as="geometry" />
        </mxCell>
        <mxCell id="TxRPVYnzFZI4B-xf0rwA-2" value="Text" style="text;strokeColor=none;align=center;fillColor=none;html=1;verticalAlign=middle;whiteSpace=wrap;rounded=0;" vertex="1" parent="1">
          <mxGeometry x="390" y="490" width="60" height="30" as="geometry" />
        </mxCell>
      </root>
    </mxGraphModel>
  </diagram>
</mxfile>
